<svg width="94" height="94" viewBox="0 0 94 94" fill="none" xmlns="http://www.w3.org/2000/svg">
<g clip-path="url(#clip0_22_2)">
<path d="M0 6.73275C0 3.01388 3.09025 0 6.90312 0H87.0969C90.9097 0 94 3.01388 94 6.73275V87.2673C94 90.9861 90.9097 94 87.0969 94H6.90312C3.09025 94 0 90.9861 0 87.2673V6.73275ZM29.0401 78.6898V36.2429H14.9343V78.6898H29.0401ZM21.9901 30.4443C26.9075 30.4443 29.9684 27.1895 29.9684 23.1123C29.8802 18.9469 26.9134 15.7803 22.0841 15.7803C17.2549 15.7803 14.1 18.9528 14.1 23.1123C14.1 27.1895 17.1609 30.4443 21.8961 30.4443H21.9901ZM50.8246 78.6898V54.9841C50.8246 53.7151 50.9186 52.4461 51.2946 51.5414C52.311 49.0092 54.6316 46.3831 58.5326 46.3831C63.638 46.3831 65.6766 50.2724 65.6766 55.9829V78.6898H79.7825V54.3438C79.7825 41.3012 72.8265 35.2383 63.544 35.2383C56.0592 35.2383 52.7046 39.3507 50.8246 42.2471V42.394H50.7306C50.7618 42.345 50.7932 42.296 50.8246 42.2471V36.2429H36.7246C36.9009 40.2261 36.7246 78.6898 36.7246 78.6898H50.8246Z" fill="black"/>
</g>
<defs>
<clipPath id="clip0_22_2">
<rect width="94" height="94" fill="white"/>
</clipPath>
</defs>
</svg>
